<!-- SPDX-FileCopyrightText: © opening_hours.js contributors -->
<!-- SPDX-License-Identifier: LGPL-3.0-only -->
<svg xmlns="http://www.w3.org/2000/svg" viewBox="0 0 96 96">
  <circle cx="33.8" cy="35.8" r="24.8" fill="none" stroke="#818181" stroke-width="4.7"/>
  <path stroke="#818181" stroke-width="1.2" d="M33.8 13.2v3.3m0 38.5v3.3M11.3 35.8h3.3m38.6 0h3.3"/>
  <path stroke="#888" stroke-linecap="round" stroke-width="2.2" d="m34 36-.2-17"/>
  <path stroke="#888" stroke-linecap="round" stroke-width="3" d="m34.5 36.6 10.4 10"/>
  <circle cx="34.2" cy="36" r="2.1" fill="#888"/>
  <path fill="none" stroke="#2563dc" stroke-linecap="round" stroke-linejoin="round" stroke-width="4.8" d="M64.7 51.5s-.2 7.4 4.6 10c8.4-18.2 22.3-31 22.3-31"/>
  <path fill="#28c828" d="M34.2 89.5h14.3V86h-9.9l.3.8c6.3-5.4 9-9.1 9-12.7 0-4-2.9-6.4-7.4-6.4-2.6 0-5 .9-7 2.5l1.2 2.9a8.8 8.8 0 0 1 5-2c2.5 0 4 1.4 4 3.5 0 2.9-3 6.2-9.5 12zm26.5.2h3.8V68.2h-3.7L50.4 83v2h17.9v-3.2H52.9l1 1 7.3-11-.5-.7zm8.8 3.3H73l6.8-26.3H76zM83 89.5h4.2L96 70v-2H80.7v3.4h11.7l-.8-1z"/>
  <path fill="#818181" d="M49.4 3.2a2 2 0 0 0-2.7 1c-.4 1.2.3 2.3 1.1 2.7 8.4 4.2 11.5 7 15.7 15.7 1 1 1.6 1.6 2.6 1.2a1.9 1.9 0 0 0 1.2-2.6 39.3 39.3 0 0 0-18-18ZM.2 21.2a2 2 0 0 0 1 2.7c1.2.3 2.3-.3 2.7-1.1C8.1 14.4 10.8 11 19.7 7c1-1 1.5-1.5 1-2.6-.3-1.1-1.4-1.6-2.5-1.1A39.3 39.3 0 0 0 .2 21Z" overflow="visible"/>
</svg>
